<svg width="457" height="488" viewBox="0 0 457 488" fill="none" xmlns="http://www.w3.org/2000/svg">
<path d="M200.205 442.939L265.086 443.043C285.737 443.077 302.567 426.302 302.607 405.647L302.666 366.758C302.744 316.968 319.152 267.43 348.868 227.271C358.843 213.795 364.13 197.784 364.155 180.973C364.173 170.277 362.016 159.92 357.963 150.36C357.963 150.36 352.781 135.913 338.428 122.903C324.076 109.892 305.666 102.754 286.153 102.723C266.383 102.691 247.447 110.301 233.154 123.394C218.9 110.25 199.991 102.588 180.218 102.556C176.457 102.55 172.738 102.818 169.078 103.33C169.078 103.33 153.5 103.331 138.24 114.707C122.981 126.083 129.024 121.277 124.941 125.349C110.164 140.08 102.005 159.688 101.971 180.555L101.971 180.559C101.943 197.371 107.235 213.391 117.112 226.905C147.131 267.76 162.952 316.021 162.873 366.538L162.811 405.424C162.78 426.08 179.554 442.908 200.205 442.939Z" stroke="white" stroke-width="2.18872"/>
<path d="M269.833 366.706L269.773 405.593C269.768 408.145 267.689 410.218 265.136 410.217L200.255 410.113C197.708 410.108 195.635 408.032 195.637 405.477L195.699 366.595C195.787 309.017 177.767 253.962 143.563 207.464C137.74 199.593 134.783 190.361 134.797 180.612C134.838 155.636 155.19 135.349 180.166 135.389C196.235 135.415 210.772 143.693 219.016 157.515C219.233 157.876 219.463 158.228 219.702 158.568C222.757 162.895 227.738 165.506 233.085 165.514C238.854 165.522 244.207 162.505 247.178 157.559C255.478 143.756 270.03 135.531 286.1 135.554C298.199 135.573 309.566 140.302 318.107 148.871C326.649 157.442 331.343 168.821 331.322 180.921C331.307 190.668 328.247 199.944 322.476 207.742C288.618 253.499 269.923 309.953 269.833 366.706Z" fill="white" stroke="white" stroke-width="2.18872"/>
<path d="M160.161 200.211C147.907 182.852 155.206 167.38 172.564 155.127C179.973 149.897 192.078 146.47 194.296 151.456C197.059 157.667 185.4 164.076 182.205 173.748C178.695 179.742 186.199 183.891 188.012 186.459C193.241 193.867 192.445 199.928 185.037 205.158C177.628 210.387 165.389 207.617 160.161 200.211Z" fill="black" stroke="white" stroke-width="2.18872"/>
</svg>
