<svg width="684" height="989" viewBox="0 0 684 989" fill="none" xmlns="http://www.w3.org/2000/svg">
<path d="M285.893 619.633C286.243 619.14 286.127 618.457 285.634 618.108C285.141 617.758 284.457 617.874 284.108 618.367L285.893 619.633ZM236.004 700.769L237.012 701.194L237.035 701.139L237.052 701.082L236.004 700.769ZM246.513 748.007L247.365 747.319L247.364 747.319L246.513 748.007ZM451.5 730L450.442 729.719L450.435 729.748L450.429 729.777L451.5 730ZM451.5 688L452.547 687.682L451.5 688ZM284.108 618.367C253.641 661.328 240.019 683.494 234.955 700.456L237.052 701.082C241.994 684.532 255.372 662.67 285.893 619.633L284.108 618.367ZM236.004 700.769C234.995 700.344 234.995 700.344 234.995 700.345C234.995 700.345 234.994 700.345 234.994 700.346C234.994 700.346 234.994 700.347 234.993 700.348C234.993 700.349 234.992 700.351 234.991 700.353C234.989 700.358 234.987 700.363 234.984 700.37C234.979 700.383 234.972 700.401 234.963 700.424C234.945 700.469 234.92 700.533 234.89 700.616C234.829 700.782 234.745 701.023 234.646 701.341C234.448 701.976 234.189 702.917 233.932 704.171C233.417 706.681 232.91 710.441 232.91 715.515L235.099 715.515C235.099 710.588 235.591 706.975 236.076 704.611C236.318 703.429 236.559 702.559 236.736 701.992C236.824 701.709 236.897 701.501 236.945 701.369C236.97 701.302 236.988 701.255 236.999 701.226C237.005 701.211 237.009 701.201 237.011 701.196C237.012 701.193 237.013 701.192 237.013 701.191C237.013 701.191 237.013 701.191 237.013 701.192C237.013 701.192 237.013 701.192 237.013 701.193C237.012 701.193 237.012 701.193 237.012 701.193C237.012 701.194 237.012 701.194 236.004 700.769ZM232.91 715.515C232.91 720.595 233.418 725.597 235.283 730.994C237.147 736.387 240.346 742.119 245.662 748.695L247.364 747.319C242.171 740.895 239.115 735.382 237.352 730.279C235.59 725.181 235.099 720.437 235.099 715.515L232.91 715.515ZM245.662 748.695C247.573 751.059 250.731 756.771 258.429 762.627C266.152 768.503 278.44 774.56 298.827 778.083L299.2 775.927C279.087 772.451 267.145 766.509 259.754 760.885C252.337 755.243 249.495 749.955 247.365 747.319L245.662 748.695ZM452.558 730.281C457.128 713.062 455.567 697.612 452.547 687.682L450.453 688.318C453.363 697.886 454.901 712.92 450.442 729.719L452.558 730.281ZM452.547 687.682C445.513 664.556 438.718 653.346 433.699 644.876C431.195 640.648 429.188 637.19 427.792 633.282C426.403 629.396 425.607 625.026 425.607 619.008L423.418 619.008C423.418 625.237 424.245 629.861 425.73 634.018C427.208 638.153 429.323 641.784 431.816 645.991C436.793 654.39 443.492 665.43 450.453 688.318L452.547 687.682ZM451.5 730C450.429 729.777 450.429 729.776 450.429 729.776C450.429 729.776 450.429 729.775 450.429 729.775C450.429 729.775 450.429 729.776 450.429 729.777C450.428 729.779 450.427 729.783 450.426 729.789C450.423 729.802 450.419 729.822 450.412 729.85C450.399 729.905 450.379 729.992 450.349 730.107C450.29 730.338 450.196 730.684 450.058 731.131C449.782 732.025 449.332 733.323 448.64 734.907C447.255 738.076 444.904 742.388 441.048 746.92C433.352 755.965 419.599 765.962 395.357 769.425L395.667 771.592C420.426 768.055 434.666 757.798 442.715 748.338C446.73 743.618 449.189 739.116 450.645 735.783C451.374 734.117 451.852 732.742 452.15 731.776C452.299 731.293 452.403 730.913 452.47 730.649C452.504 730.517 452.528 730.415 452.545 730.343C452.553 730.307 452.559 730.279 452.564 730.259C452.566 730.249 452.568 730.241 452.569 730.235C452.569 730.232 452.57 730.23 452.57 730.228C452.571 730.227 452.571 730.226 452.571 730.225C452.571 730.224 452.571 730.223 451.5 730Z" fill="white"/>
<path d="M284.81 619C284.834 603.815 284.872 366.538 284.872 366.538C284.951 316.021 269.131 267.761 239.112 226.906C229.234 213.391 223.943 197.371 223.97 180.559L223.97 180.556C224.004 159.688 232.164 140.08 246.941 125.349C251.024 121.277 244.98 126.083 260.24 114.707C275.499 103.331 291.078 103.33 291.078 103.33C294.737 102.818 298.457 102.55 302.217 102.556C321.99 102.588 340.899 110.25 355.153 123.394C369.446 110.301 388.382 102.692 408.152 102.723C427.665 102.755 446.075 109.892 460.427 122.903C474.78 135.914 479.963 150.36 479.963 150.36C484.016 159.92 486.172 170.277 486.155 180.973C486.129 197.784 480.842 213.795 470.867 227.271C441.152 267.43 424.743 316.968 424.666 366.758L424.667 619" stroke="white" stroke-width="2.18872"/>
<path d="M391.833 366.706L391.773 405.593C391.768 408.145 389.689 410.218 387.136 410.217L322.255 410.113C319.708 410.108 317.635 408.032 317.637 405.477L317.699 366.595C317.787 309.017 299.767 253.962 265.563 207.464C259.74 199.593 256.783 190.361 256.797 180.612C256.838 155.636 277.19 135.349 302.166 135.389C318.235 135.415 332.772 143.693 341.016 157.515C341.233 157.876 341.463 158.228 341.702 158.568C344.757 162.895 349.738 165.506 355.085 165.514C360.854 165.522 366.207 162.505 369.178 157.559C377.478 143.756 392.03 135.531 408.1 135.554C420.199 135.573 431.566 140.302 440.107 148.871C448.649 157.442 453.343 168.821 453.322 180.921C453.307 190.668 450.247 199.944 444.476 207.742C410.618 253.499 391.923 309.953 391.833 366.706Z" fill="white" stroke="white" stroke-width="2.18872"/>
<path d="M282.161 200.211C269.907 182.852 277.206 167.38 294.564 155.127C301.973 149.897 314.078 146.47 316.296 151.456C319.059 157.667 307.4 164.076 304.205 173.748C300.695 179.742 308.199 183.891 310.012 186.459C315.241 193.867 314.445 199.928 307.037 205.158C299.628 210.387 287.389 207.617 282.161 200.211Z" fill="black" stroke="white" stroke-width="2.18872"/>
<path d="M392.032 533.711L391.971 402.974C391.966 400.423 389.887 398.35 387.334 398.35L322.453 398.454C319.906 398.46 317.833 400.535 317.835 403.09L317.897 533.822C317.985 591.4 313.153 639.852 278.95 686.35C273.126 694.22 265.747 710.056 265.761 719.805C265.802 744.781 283.474 758.39 308.45 758.35C324.519 758.323 332.97 756.724 341.214 742.903C341.431 742.542 341.661 742.189 341.901 741.85C344.955 737.523 350.926 727.858 356.274 727.85C362.043 727.842 368.803 732.405 371.774 737.35C376.881 745.85 380.274 753.365 389.274 753.35C396.274 753.339 397.733 754.42 406.274 745.85C414.816 737.279 418.795 731.905 418.774 719.805L418.774 719.681C418.758 709.858 418.721 686.278 406.274 669.35C387.334 628.35 392.121 590.464 392.032 533.711Z" fill="white" stroke="white" stroke-width="2.18872"/>
<path d="M29.7409 985.227C27.0807 984.695 25.0233 983.741 24.5318 982.336C23.9837 980.767 24.5282 979.024 25.8477 978.014C26.3749 977.612 31.5647 973.697 40.5182 968.525C36.6981 968.917 33.2199 969.087 30.0664 969.087C15.1005 969.086 7.38635 965.573 4.51007 963.948C2.76187 962.96 1.69488 962.257 1.20334 960.797C0.672586 959.221 1.20791 957.48 2.53479 956.474C3.28167 955.907 13.3486 948.374 30.2087 940.166C30.2087 940.166 26.8646 939.969 25.762 939.806C24.0421 939.554 22.6286 938.751 22.0942 937.181C21.5589 935.61 22.0814 933.875 23.3946 932.862C24.1725 932.262 35.2453 923.842 53.828 915.088L44.746 912.235C43.2732 911.773 42.2154 910.48 42.053 908.944C41.8907 907.408 42.6558 905.923 44 905.163C81.9415 883.718 112.934 881.259 164.282 877.183C170.854 876.661 177.777 876.113 185.109 875.493C244.375 870.485 282.626 847.472 287.159 844.623C289.342 830.31 292.078 803.169 294.824 751.789C297.483 702.06 313.928 670.841 313.941 670.357C314 668.217 315.777 666.54 317.923 666.59C320.063 666.65 321.749 668.432 321.69 670.573C321.676 671.058 305.229 702.363 302.565 752.189C299.093 817.131 295.657 843.736 293.101 855.233C307.408 848.148 314.921 835.405 328.905 841.258C323.979 816.02 341.256 706.775 340.442 648.17C340.412 646.029 342.122 644.27 344.263 644.24C344.281 644.24 344.299 644.24 344.318 644.24C346.433 644.24 348.163 645.94 348.192 648.062C349.084 712.262 328.609 835.914 328.403 837.155C328.403 837.155 327.855 839.915 328.254 841.711C329.144 845.71 337.108 854.784 384.289 870.99C394.89 873.262 404.715 876.785 413.405 881.241C414.148 880.92 415.424 880.193 415.792 878.867C416.146 877.594 416.412 872.571 404.99 861.402C378.436 835.439 379.443 813.803 379.608 811.724L388.911 745.103C389.009 742.965 390.83 741.308 392.961 741.41C395.099 741.508 396.752 743.321 396.654 745.46L387.347 812.158C387.345 812.208 387.338 812.288 387.334 812.338C387.317 812.532 385.964 831.962 410.407 855.86C420.894 866.115 425.098 874.319 423.259 880.942C422.754 882.76 421.827 884.224 420.734 885.391C438.342 896.364 449.903 911.45 451.476 927.361C453.116 943.955 443.279 958.133 424.487 966.259C417.911 969.102 410.095 970.543 401.254 970.543C377.784 970.543 348.954 959.963 332.442 947.272C324.653 951.727 295.557 966.814 267.858 961.115C245.09 956.426 201.396 955.412 122.539 977.202C91.1495 985.876 68.8241 988.652 53.735 988.274C47.3715 988.115 34.5669 986.191 29.7409 985.227ZM44.6192 933.766C54.4309 929.819 65.6998 926.104 78.1296 923.324C77.9946 921.653 76.6258 918.045 74.5338 914.883C57.9464 920.985 44.9904 928.119 37.0337 933.037L44.6192 933.766ZM81.6853 950.185C80.4141 945.633 78.716 937.647 79.9945 930.844C72.916 932.427 66.2123 934.342 59.9436 936.437C61.3717 941.595 63.2092 950.14 61.4537 956.745C61.4537 956.745 72.5294 953.825 81.6853 950.185ZM258.548 928.37L285.959 907.739C280.285 904.618 274.901 901.391 270.862 897.97C269.044 896.431 267.543 894.877 266.348 893.31L243.629 910.663C252.325 917.806 256.908 924.644 258.548 928.37ZM281.946 954.595C300.568 954.226 318.475 945.932 326.246 941.812C322.922 938.375 320.613 934.877 319.639 931.468C317.713 924.725 304.909 917.849 293.443 911.758L266.884 932.222C276.516 940.537 280.505 950.095 281.946 954.595ZM88.8103 919.574C92.2547 918.352 97.0178 917.239 102.724 916.227C101.652 913.679 100.713 910.428 100.878 907.145C94.2984 908.594 88.0498 910.331 82.1796 912.235C83.8065 914.774 85.4206 917.96 85.862 921.08C86.7639 920.466 87.7442 919.952 88.8103 919.574ZM108.843 906.172C107.985 908.749 109.452 912.549 110.693 914.961C146.384 909.845 206.128 907.681 228.496 907.023C227.276 897.454 222.744 893.995 221.611 893.27C182.303 894.582 128.761 897.403 112.286 903.249C109.776 904.14 109.119 905.343 108.843 906.172ZM231.704 892.955C233.704 896.082 235.533 900.49 236.239 906.553L254.775 892.395C248.818 892.511 240.86 892.69 231.704 892.955ZM236.027 914.573C223.099 914.902 116.793 917.869 91.403 926.879C85.3276 929.035 87.3576 941.281 89.1195 947.901C95.1803 946.156 101.578 944.6 108.291 943.344C109.41 942.378 110.695 941.617 112.137 941.106C135.425 932.843 218.767 929.569 249.312 928.629C247.225 925.09 243.259 919.887 236.027 914.573ZM103.718 952.182C96.3822 953.801 89.4478 955.779 82.9839 957.95C84.0281 962.96 85.2975 971.459 83.6961 977.907C90.4354 976.828 97.9152 975.357 106.178 973.401C104.623 968.316 102.486 959.449 103.718 952.182ZM164.895 884.913C116.781 888.731 88.6662 890.961 55.8535 907.6L64.6228 910.354C76.2264 905.634 89.9283 901.223 105.288 898.338C106.432 897.423 107.87 896.591 109.695 895.944C127.627 889.58 184.226 886.685 224.19 885.407C223.739 882.761 221.093 879.937 219.248 878.342C209.017 880.476 197.83 882.199 185.761 883.218C178.414 883.839 171.479 884.389 164.895 884.913ZM285.27 854.726C275.653 860.033 255.952 869.553 228.068 876.347C230.062 878.877 231.673 881.924 231.965 885.172C246.28 884.764 257.628 884.573 262.934 884.498C262.891 882.528 263.31 880.547 264.213 878.559C267.19 872.011 274.377 865.983 283.005 860.743C283.005 860.743 284.77 859.78 285.27 854.726ZM421.411 959.144C437.129 952.346 445.066 941.33 443.761 928.123C441.988 910.183 422.111 887.024 382.662 878.57C350.997 871.784 325.03 855.191 320.783 844.553C320.423 843.651 320.183 842.791 320.036 841.98C302.391 847.721 277.297 868.509 271.271 881.767C268.062 888.824 279.752 895.71 296.615 904.667C305.351 909.307 313.785 913.79 319.652 918.881H353.461C355.601 918.881 357.336 920.616 357.336 922.756C357.336 924.897 355.601 926.632 353.461 926.632H326.033C326.471 927.511 326.827 928.413 327.092 929.34C327.612 931.162 328.906 933.181 330.813 935.296H390.393C392.533 935.296 394.268 937.03 394.268 939.171C394.268 941.313 392.533 943.047 390.393 943.047H340.007C354.652 953.114 379.156 962.793 401.254 962.793C409.031 962.792 415.813 961.565 421.411 959.144ZM269.421 953.522C270.787 953.804 272.162 954.009 273.539 954.178C271.617 949.555 267.515 942.217 259.343 936.105C246.365 936.436 140.115 939.403 114.729 948.41C113.53 948.836 112.694 949.632 112.1 950.916C109.936 955.586 111.684 964.995 113.716 971.532C115.922 970.962 118.165 970.369 120.475 969.73C184.069 952.159 235.574 946.554 269.421 953.522ZM74.6378 979.326C77.0508 978.828 77.3244 969.603 75.6044 960.58C58.3988 967.076 45.1983 974.593 37.6592 979.365C44.1942 980.495 57.1029 982.949 74.6378 979.326ZM51.7516 958.984C55.4495 957.761 54.367 947.145 52.513 939.073C33.9768 946.038 20.0369 954.181 12.796 958.847C18.4929 960.528 33.54 965.012 51.7516 958.984Z" fill="white" stroke="white" stroke-width="0.121417"/>
</svg>
